<svg xmlns="http://www.w3.org/2000/svg" viewBox="0 0 120 32" fill="none">
  <rect width="32" height="32" rx="6" fill="#0066CC"/>
  <path d="M8 16C8 11.582 11.582 8 16 8C18.21 8 20.21 8.895 21.657 10.343L19.536 12.464C18.648 11.576 17.387 11 16 11C13.239 11 11 13.239 11 16C11 18.761 13.239 21 16 21C17.387 21 18.648 20.424 19.536 19.536L21.657 21.657C20.21 23.105 18.21 24 16 24C11.582 24 8 20.418 8 16Z" fill="white"/>
  <path d="M38 22V10H41.5C43.985 10 45.5 11.343 45.5 13.5C45.5 15.657 43.985 17 41.5 17H40.5V22H38ZM40.5 15H41.5C42.605 15 43 14.5 43 13.5C43 12.5 42.605 12 41.5 12H40.5V15Z" fill="currentColor"/>
  <path d="M47 22V10H49.5V22H47Z" fill="currentColor"/>
  <path d="M51.5 16C51.5 12.686 53.686 9.8 57 9.8C60.314 9.8 62.5 12.686 62.5 16C62.5 19.314 60.314 22.2 57 22.2C53.686 22.2 51.5 19.314 51.5 16ZM54 16C54 18.1 55.3 19.8 57 19.8C58.7 19.8 60 18.1 60 16C60 13.9 58.7 12.2 57 12.2C55.3 12.2 54 13.9 54 16Z" fill="currentColor"/>
  <path d="M64 22V10H66.5V22H64Z" fill="currentColor"/>
  <path d="M68.5 19L70.5 17.5C71.2 18.9 72.3 19.9 73.8 19.9C75 19.9 75.8 19.3 75.8 18.4C75.8 17.4 74.9 17 73.3 16.4C71.2 15.6 69.3 14.7 69.3 12.4C69.3 10.4 71 9.7 72.8 9.7C74.5 9.7 76 10.6 76.9 12L75 13.4C74.4 12.4 73.6 11.9 72.7 11.9C71.8 11.9 71.3 12.3 71.3 12.9C71.3 13.7 72.1 14 73.7 14.7C75.9 15.6 78.2 16.4 78.2 18.7C78.2 21 76.4 22.2 73.9 22.2C71.7 22.2 69.8 21 68.5 19Z" fill="currentColor"/>
</svg>
